<svg xmlns="http://www.w3.org/2000/svg" viewBox="0 0 377.82 255.26"><defs><style>.cls-1{fill:#c91630;}.cls-2{fill:#fffeff;}.cls-3{fill:#252f5d;}</style></defs><path class="cls-1" d="M377.82,102v51.29a14.22,14.22,0,0,0-1.45-.14H209.66c-.52,0-1,0-1.67.07v2l-.06,100H170.18V153.08H.34v-51h170V.3H208V102.13H376.22C376.76,102.12,377.29,102,377.82,102Z"/><path class="cls-2" d="M377.82,102c-.53.05-1.06.13-1.6.13H208V.3H170.3V102.12H.34v51H170.18V255.26H157.79c0-.58-.09-1.17-.09-1.75V177.4L156,178.52q-48.19,32.55-96.39,65.1c-5.64,3.82-11.21,7.76-16.81,11.64H28.61a4.15,4.15,0,0,1,.57-.61l114.87-77.59c3.27-2.21,6.53-4.44,10.23-6.95-9.06,0-17.56,0-26.05,0a7,7,0,0,0-3.63,1.09Q68.8,208.8,13.08,246.46c-4.22,2.85-8.33,5.86-12.49,8.8-.2-.44-.57-.88-.57-1.32Q0,127,0,0H377.82V28.89a2.33,2.33,0,0,0-.52.2L329,61.7c-11.45,7.73-22.91,15.43-34.86,23.49h83.64ZM220.66,77.85,335.54.28H220.66Zm-63.06,0V.32H42.79Zm66.23,7.31c9.27,0,17.91,0,26.55,0a5.63,5.63,0,0,0,3-.89Q304.06,50,354.74,15.77L377.79.22c-9.28,0-18,0-26.75,0a4.94,4.94,0,0,0-2.56.79q-39.56,26.66-79,53.39C254.41,64.58,239.36,74.69,223.83,85.15ZM.3,85.1H83.94L.3,28.62Zm0,85.12v56.4l83.53-56.4ZM.31,19.1l87,58.71c3.64,2.46,7.12,6.54,11,7,9,1,18.28.33,28,.33L.31.11Z"/><path class="cls-2" d="M207.93,255.26l.06-100v-2c.63,0,1.15-.07,1.67-.07H376.37a14.22,14.22,0,0,1,1.45.14v16.8H294.36c.77.57,1.09.82,1.43,1q26.11,17.66,52.22,35.3c9.91,6.68,19.87,13.3,29.81,19.95v9.72q-6.36-4.33-12.73-8.67-37.95-25.68-75.92-51.33c-3.07-2.07-6.1-5.43-9.37-5.71-9-.8-18.12-.28-27.49-.28.44.38.64.57.86.73q57,38.5,114,77c3.52,2.38,6.91,4.93,10.35,7.4H335.64a4.33,4.33,0,0,0-.62-.59L243.75,193l-23.13-15.62v77.88Z"/><path class="cls-3" d="M42.77,255.26c5.6-3.88,11.17-7.82,16.81-11.64q48.18-32.56,96.39-65.1l1.73-1.12v76.11c0,.58.06,1.17.09,1.75Z"/><path class="cls-3" d="M220.62,255.26V177.38L243.75,193,335,254.67a4.33,4.33,0,0,1,.62.59Z"/><path class="cls-1" d="M.59,255.26c4.16-2.94,8.27-5.95,12.49-8.8,37.15-25.1,112.3-75.74,113.06-76.26l2.09,0c8.49-.09,17,0,26.05,0-3.7,2.51-7,4.74-10.23,6.95L29.18,254.65a4.15,4.15,0,0,0-.57.61Z"/><path class="cls-3" d="M377.82,226.38c-9.94-6.65-19.9-13.27-29.81-19.95q-26.13-17.62-52.22-35.3c-.34-.23-.66-.48-1.43-1h83.46Z"/><path class="cls-3" d="M377.82,85.19H294.18C306.13,77.13,317.59,69.43,329,61.7L377.3,29.09a2.33,2.33,0,0,1,.52-.2Z"/><path class="cls-1" d="M377.52,255.26c-3.44-2.47-6.83-5-10.35-7.4q-57-38.54-114-77c-.22-.16-.42-.35-.86-.73,9.37,0,18.92.15,27.49.28,2.39,1.47,60,39.92,85.29,57q6.38,4.32,12.73,8.67,0,9,0,18A5,5,0,0,1,377.52,255.26Z"/><path class="cls-3" d="M220.66,77.85V.28H335.54Z"/><path class="cls-3" d="M157.6,77.84,42.79.32H157.6Z"/><path class="cls-1" d="M223.83,85.15c15.53-10.46,30.58-20.57,45.61-30.72q39.51-26.7,79-53.39A4.94,4.94,0,0,1,351,.25c8.74,0,17.47,0,26.75,0L354.74,15.77C320.94,38.6,252.5,84.71,252,85.09,251,85.14,233.1,85.15,223.83,85.15Z"/><path class="cls-3" d="M.3,85.1V28.62L83.94,85.1Z"/><path class="cls-3" d="M.34,170.22H83.87L.34,226.62Z"/><path class="cls-1" d="M.31,19.1V.11l125.92,85c-9.68,0-18.27-.19-28.84-.36-4.59-2.72-6.19-4.07-10.13-6.6C58.31,58.63,29.36,38.72.31,19.1Z"/></svg>