<?xml version="1.0" encoding="utf-8"?>
<svg version="1.1" xmlns="http://www.w3.org/2000/svg" xmlns:xlink="http://www.w3.org/1999/xlink" viewBox="0 0 349.3 116.9" style="width:500px;">
    <style type="text/css">
        .st0{fill:url(#SVGID_1_);}
        .st1{fill:url(#SVGID_00000021095540465193288280000009242830455784728728_);}
        .st2{fill:url(#SVGID_00000080900987754659247600000008657780372513416323_);}
        .st3{fill:url(#SVGID_00000020392234719429592680000013542016772594361243_);}
        .st4{fill:url(#SVGID_00000142162743870026625560000005674135542387813795_);}
        .st5{fill:url(#SVGID_00000042734107032335050820000011544677099228821420_);}
        .st6{fill:url(#SVGID_00000116229100760819572630000000482191841887453609_);}
        .st7{fill:url(#SVGID_00000093871438563189045780000006910046698707916199_);}
        .st8{fill:url(#SVGID_00000172403338083741589540000007958480647023797651_);}
        .st9{fill:url(#SVGID_00000031203912277743260720000005400583453444938413_);}
        .st10{fill:url(#SVGID_00000103963520968132580980000017535424110024191159_);}
        .st11{fill:url(#SVGID_00000181796634829672829680000004149782495545815937_);}
        .st12{fill:url(#SVGID_00000013875301198082486710000006777734326921415332_);}
        .st13{fill:url(#SVGID_00000033329212290921004330000009659761959713311132_);}
        .st14{fill:url(#SVGID_00000013883999777822007450000015179353926438251429_);}
        .st15{fill:url(#SVGID_00000167363062900210027700000013961052341909651870_);}
        .st16{fill:url(#SVGID_00000176764264044026634510000001119211073634360455_);}
        .st17{fill:url(#SVGID_00000016796967455544637400000011840875908197821096_);}
        .st18{fill:url(#SVGID_00000132069145445612871590000009687330423521639047_);}
        .st19{fill:url(#SVGID_00000024683840785663612640000017682192025771984274_);}
        .st20{fill:url(#SVGID_00000099620403205864109100000011388133861665771425_);}
        .st21{fill:url(#SVGID_00000042011718295670827920000016113263355924436405_);}
        .st22{fill:url(#SVGID_00000047758395365850213560000013862972449474046140_);}
        .st23{fill:url(#SVGID_00000067932498614389920080000011272412222733556355_);}
        .st24{fill:url(#SVGID_00000162345835580520513250000006535749575910901672_);}
        .st25{fill:url(#SVGID_00000152943687713746802530000017642792766638518463_);}
        .st26{fill:url(#SVGID_00000044894166449353335130000001538865882606271618_);}
        .st27{fill:url(#SVGID_00000158736427884613240130000009939719458196278707_);}
        .st28{fill:url(#SVGID_00000049934321175940827920000005020586582131575442_);}
        .st29{fill:url(#SVGID_00000011746296003818423420000017431447037877696906_);}
        .st30{fill:url(#SVGID_00000026855528191761397360000007007966965691125677_);}
        .st31{fill:url(#SVGID_00000037666472533175979760000013876496833341184924_);}
        .st32{fill:url(#SVGID_00000127034519709392009010000017594115140216094903_);}
        .st33{fill:url(#SVGID_00000148626807302137076660000005630780560507398078_);}
        .st34{fill:url(#SVGID_00000130622407858316454930000013295354277566700933_);}
        .st35{fill:url(#SVGID_00000160882647336353499020000008573622234547299730_);}
        .st36{fill:url(#SVGID_00000068666911278022390050000012085522282740689026_);}
        .st37{fill:url(#SVGID_00000156575202869879227390000010650051835173253544_);}
        .st38{fill:url(#SVGID_00000071518655356303238720000011713040412893325232_);}
        .st39{fill:#A6BAC9;}
        .st40{fill:url(#SVGID_00000121243207677384567440000014773061487954445475_);}
        .st41{fill:url(#SVGID_00000048474046238836529290000003373333925090271143_);}
        .st42{fill:url(#SVGID_00000005236123530455309090000012879385550519364022_);}
    </style>
    <path d="M115.8,78.1"/>
    <radialGradient id="SVGID_1_" cx="181.7023" cy="59.1349" r="120.823" gradientTransform="matrix(1.1036 1.916477e-02 -4.939132e-03 0.3045 -24.1656 37.9722)" gradientUnits="userSpaceOnUse">
        <stop  offset="0" style="stop-color:#A6BAC9;stop-opacity:0.5"/>
        <stop  offset="0.976" style="stop-color:#A6BAC9;stop-opacity:0"/>
    </radialGradient>
    <rect x="40.2" y="21.4" class="st0" width="293.6" height="75"/>
    <g>
        <linearGradient id="SVGID_00000035490822352099734820000018256424729509608584_" gradientUnits="userSpaceOnUse" x1="150.7125" y1="74.2386" x2="150.7125" y2="96.816">
            <stop  offset="0" style="stop-color:#6CABC2"/>
            <stop  offset="1" style="stop-color:#4E4A74"/>
        </linearGradient>
        <path style="fill:url(#SVGID_00000035490822352099734820000018256424729509608584_);" d="M153.1,74.9c-4.7,0-9.8,2-9.8,6.7
            c0,3.5,3.8,4.4,7.4,4.8c3.6,0.6,5.5,1.1,5,3.5c-0.6,2.5-3.7,3.5-6.5,3.5c-2.7,0-5.5-0.5-5.1-3.6H141c-0.7,4.6,3.3,6.2,7.7,6.2
            c4.8-0.1,9.3-1.8,10.2-6c1.1-4.8-3.1-5.7-7.3-6.3c-3.4-0.5-5.1-1-5.1-2.6c0-2.6,3.2-3.7,6.1-3.7c2.7,0,5,0.8,4.7,3.2h3.1
            C161.2,76.9,157.3,74.9,153.1,74.9z"/>
        <linearGradient id="SVGID_00000018219377683289324850000012966121563611776170_" gradientUnits="userSpaceOnUse" x1="173.1949" y1="74.2386" x2="173.1949" y2="96.816">
            <stop  offset="0" style="stop-color:#6CABC2"/>
            <stop  offset="1" style="stop-color:#4E4A74"/>
        </linearGradient>
        <path style="fill:url(#SVGID_00000018219377683289324850000012966121563611776170_);" d="M176,74.8c-5.7,0.1-10.5,3.1-12.4,9.3
            c-2,7.2,1.4,11.9,8.7,11.8c2.4,0,4.8-0.4,7.4-1.5l0.4-2.9c-2.1,0.9-4.8,1.7-7.1,1.7c-5.2,0-7.9-2.6-6.6-7.9
            c1.8,1.5,4.9,2.1,7.6,2.1c3.6,0,8.2-1.6,9.2-6C184.2,76.8,180.2,74.8,176,74.8z M180.1,81.4c-0.8,2.6-3.8,3.4-6.1,3.4
            s-5.3-0.6-6.7-2c1.5-3.6,4.6-5.4,8.1-5.4C177.9,77.5,180.9,78.6,180.1,81.4z"/>
        <linearGradient id="SVGID_00000015347097653524263970000001851551191406439843_" gradientUnits="userSpaceOnUse" x1="196.3" y1="74.2386" x2="196.3" y2="96.816">
            <stop  offset="0" style="stop-color:#6CABC2"/>
            <stop  offset="1" style="stop-color:#4E4A74"/>
        </linearGradient>
        <path style="fill:url(#SVGID_00000015347097653524263970000001851551191406439843_);" d="M204.9,91.1l1.6-7.6
            c1-4.9-0.9-8.6-6.3-8.6c-3,0-6.2,1-8,3.8c0.7-3.1-1.3-4.3-4.8-3.5l-0.4,2.1c2.8-0.3,2.4,0.7,1.7,3.7l-3.1,14.5h3.3l2.5-11.9
            c0.8-3.7,3.9-6.1,7.3-6.1c3.3,0,5.2,2.3,4.5,5.9l-1.6,7.7c-0.9,4.2,1,5,4.9,4.4l0.5-2.3C204.7,93.6,204.6,93,204.9,91.1z"/>
        <linearGradient id="SVGID_00000143615342815753603230000011021333480339440561_" gradientUnits="userSpaceOnUse" x1="219.5766" y1="74.2386" x2="219.5766" y2="96.816">
            <stop  offset="0" style="stop-color:#6CABC2"/>
            <stop  offset="1" style="stop-color:#4E4A74"/>
        </linearGradient>
        <path style="fill:url(#SVGID_00000143615342815753603230000011021333480339440561_);" d="M222,74.9c-4.7,0-9.8,2-9.8,6.7
            c0,3.5,3.8,4.4,7.4,4.8c3.6,0.6,5.5,1.1,5,3.5c-0.5,2.5-3.7,3.5-6.5,3.5c-2.7,0-5.5-0.5-5.1-3.6h-3.1c-0.7,4.6,3.3,6.2,7.7,6.2
            c4.8-0.1,9.3-1.8,10.2-6c1.1-4.8-3.1-5.7-7.3-6.3c-3.4-0.5-5.1-1-5.1-2.6c0-2.6,3.2-3.7,6-3.7c2.7,0,5,0.8,4.7,3.2h3.1
            C230.1,76.9,226.3,74.9,222,74.9z"/>
        <linearGradient id="SVGID_00000114031440273270433240000012366196662989916817_" gradientUnits="userSpaceOnUse" x1="242.1934" y1="74.2386" x2="242.1934" y2="96.816">
            <stop  offset="0" style="stop-color:#6CABC2"/>
            <stop  offset="1" style="stop-color:#4E4A74"/>
        </linearGradient>
        <path style="fill:url(#SVGID_00000114031440273270433240000012366196662989916817_);" d="M245,74.8c-5.7,0.1-10.5,3.1-12.4,9.3
            c-2,7.2,1.4,11.9,8.7,11.8c2.4,0,4.8-0.4,7.4-1.5l0.4-2.9c-2.1,0.9-4.8,1.7-7.1,1.7c-5.2,0-7.9-2.6-6.6-7.9
            c1.8,1.5,4.9,2.1,7.6,2.1c3.6,0,8.2-1.6,9.2-6C253.2,76.8,249.1,74.8,245,74.8z M249,81.4c-0.8,2.6-3.8,3.4-6.1,3.4s-5.3-0.6-6.7-2
            c1.5-3.6,4.6-5.4,8.1-5.4C246.9,77.5,249.8,78.6,249,81.4z"/>
    </g>
    <g>
        <g>	
            <linearGradient id="SVGID_00000021106770330682363390000008776283235641668224_" gradientUnits="userSpaceOnUse" x1="56.2219" y1="-8.3302" x2="56.2219" y2="115.6441">
                <stop  offset="0" style="stop-color:#FFFFFF"/>
                <stop  offset="1" style="stop-color:#000000"/>
            </linearGradient>
            <path style="fill:url(#SVGID_00000021106770330682363390000008776283235641668224_);" d="M36.2,72.1c-1.2,0.9-1.6,2.4-0.8,3.7
                c1.3,2.3,2.6,4.5,3.8,6.8c0.9,1.7,2.2,2.3,4,2.3c4.3-0.1,8.5,0,12.8,0c0.8,0,1.7,0,2.6,0c3.8,0,7.6,0,11.5-0.1
                c1.2,0,1.9-0.7,2.4-1.6c1.3-2.2,2.5-4.4,3.8-6.6c3-5.3,6-10.5,9-15.8c0.7-1.2,1-2.5,0.3-3.7c-4.4-7.4-8.9-14.8-13.3-22.1
                c-0.8-1.3-1.6-2.5-3.3-2.5c-8.7-0.1-17.3,0-26,0c-1.2,0-2.2,0.4-2.8,1.4c-0.7,1.1-1.3,2.2-1.9,3.3c-3.8,6.6-7.7,13.1-11.5,19.8
                c-0.4,0.8-0.5,2.1-0.1,2.9c1.2,2.5,2.7,4.9,4.1,7.3c0.8,1.4,2.4,1.9,3.8,1.1c1.3-0.7,1.9-2.3,1.2-3.7c-0.9-1.8-2-3.5-2.9-5.3
                c-0.2-0.4-0.2-1,0-1.4c1.4-2.5,2.9-5,4.4-7.5c2.3-3.9,4.6-7.8,6.9-11.7c0.2-0.3,0.6-0.7,1-0.7c7.2,0,14.5,0,21.8,0
                c0.3,0,0.7,0.2,0.9,0.5c4,6.5,7.9,13,11.8,19.6c0.2,0.3,0.1,0.9-0.1,1.3c-3.6,6.4-7.2,12.7-10.8,19.1c-0.3,0.6-0.7,0.8-1.4,0.8
                c-7.1,0-14.2-0.1-21.2,0c-1.5,0-2.3-0.5-2.9-1.8c-0.9-1.8-1.9-3.5-3.1-5.2C39,71.3,37.3,71.3,36.2,72.1z"/>
            <linearGradient id="SVGID_00000180325365440378556340000010292925695644956551_" gradientUnits="userSpaceOnUse" x1="55.8992" y1="-8.3302" x2="55.8992" y2="115.6441">
                <stop  offset="0" style="stop-color:#FFFFFF"/>
                <stop  offset="1" style="stop-color:#000000"/>
            </linearGradient>
            <path style="fill:url(#SVGID_00000180325365440378556340000010292925695644956551_);" d="M45.4,75.4c0.4,1.3,1.3,2,3.1,1.8
                c0.9-0.1,2-0.9,2.3-1.8c1.4-4.7,2.8-9.4,4.2-14.1c0.2-0.8,0.5-1.6,0.8-2.6c0.2,0.4,0.2,0.6,0.3,0.8c1.6,5.2,3.1,10.5,4.7,15.7
                c0.4,1.2,1.3,2,2.4,2c1.7,0.1,2.6-0.5,3.1-1.9c1.9-6.2,3.9-12.5,5.8-18.8c0.3-0.9,0.6-1.7,0.7-2.6c0.3-1.5-0.6-2.8-2.1-3.2
                c-1.4-0.4-2.9,0.3-3.3,1.8c-0.9,2.8-1.8,5.7-2.7,8.5c-0.4,1.1-0.7,2.3-1.1,3.6c-0.2-0.5-0.3-0.8-0.4-1c-1.6-5.5-3.3-11-4.9-16.5
                C58,46,57,45.2,55.9,45.2c-1.1,0-2.2,0.8-2.5,1.9c-1.3,4.3-2.6,8.7-3.9,13c-0.4,1.5-0.9,2.9-1.4,4.6c-0.2-0.4-0.3-0.7-0.3-0.9
                c-1.1-3.6-2.2-7.1-3.3-10.7c-0.6-1.8-2-2.8-3.6-2.3s-2.3,2-1.8,3.8c1.1,3.6,2.2,7.2,3.3,10.8C43.3,68.7,44.3,72.1,45.4,75.4z"/>
            <linearGradient id="SVGID_00000061469214126867940460000002910030061603268492_" gradientUnits="userSpaceOnUse" x1="83.9945" y1="-8.3302" x2="83.9945" y2="115.6441">
                <stop  offset="0" style="stop-color:#FFFFFF"/>
                <stop  offset="1" style="stop-color:#000000"/>
            </linearGradient>
            <path style="fill:url(#SVGID_00000061469214126867940460000002910030061603268492_);" d="M62.1,29.8c1.6,0,3.2,0,4.8-0.1
                c0.4,0,0.8-0.3,1-0.6c1.1-1.4,2-3,3.2-4.1c3.2-2.9,7.2-3.9,11.4-4.4c0.8-0.1,1.2,0.1,1.5,0.9c0.2,0.5,0.5,0.9,0.9,1.4
                c4.8,7,15.8,6.5,19.8-1c4.5-8.4-1.7-17.7-10.2-17.4C88.7,4.5,84,8.4,83,14.1c-0.1,0.6-0.2,1-0.9,1c-3.7,0.2-7.2,1-10.5,2.8
                c-4.8,2.5-8.2,6.3-9.8,11.5C61.7,29.5,62,29.8,62.1,29.8z M94.5,9.3c3.5,0,6.8,3.3,6.8,6.8s-3.2,6.8-6.8,6.8
                c-3.6,0-6.9-3.3-6.9-6.9C87.7,12.6,91,9.3,94.5,9.3z"/>
            <linearGradient id="SVGID_00000062191069595843039590000012596483597582173576_" gradientUnits="userSpaceOnUse" x1="29.4394" y1="-8.3302" x2="29.4394" y2="115.6441">
                <stop  offset="0" style="stop-color:#FFFFFF"/>
                <stop  offset="1" style="stop-color:#000000"/>
            </linearGradient>
            <path style="fill:url(#SVGID_00000062191069595843039590000012596483597582173576_);" d="M51.1,88.1c-1.7,0.1-3.3,0.1-5,0.1
                c-0.3,0-0.6,0.2-0.8,0.5c-0.8,1-1.3,2.1-2.2,2.9c-3.4,3.4-7.8,4.5-12.4,4.9c-0.2,0-0.4-0.3-0.5-0.5c-1.8-4.9-5.9-7.8-11.2-7.9
                c-0.8,0.1-1.7,0.1-2.5,0.3c-8.7,2-11.6,11.8-7.1,18.2c2.9,4.2,7.1,5.7,12,4.8c4.7-0.9,7.7-3.9,9-8.5c0.2-0.6,0.4-0.7,0.9-0.8
                c4.9-0.3,9.5-1.4,13.5-4.4c3.1-2.3,5.4-5.2,6.7-8.9C51.7,88.2,51.5,88.1,51.1,88.1z M19.2,106.6c-3.5,0-6.8-2.3-6.9-6.7
                c-0.1-3.5,2.4-6.5,6.5-6.8c3.6-0.3,6.8,2.9,7,6.7C26,103.1,22.8,106.6,19.2,106.6z"/>
            <linearGradient id="SVGID_00000054257540423787613860000006805973290710944677_" gradientUnits="userSpaceOnUse" x1="95.4467" y1="-8.3302" x2="95.4467" y2="115.6441">
                <stop  offset="0" style="stop-color:#FFFFFF"/>
                <stop  offset="1" style="stop-color:#000000"/>
            </linearGradient>
            <path style="fill:url(#SVGID_00000054257540423787613860000006805973290710944677_);" d="M99.4,85.4c-0.7-0.3-0.9-0.6-0.9-1.2
                c-0.1-3-0.6-6-1.6-8.8c-1.8-4.9-5-8.6-9.6-11.1c-0.5-0.3-0.8-0.1-1,0.3c-0.7,1.3-1.4,2.5-2.1,3.8c-0.3,0.5-0.2,0.7,0.3,0.9
                c1.9,0.9,3.5,2.1,4.7,3.7c2.6,3.4,3.5,7.3,3.8,11.4c0,0.2-0.3,0.7-0.5,0.7c-5.1,1.4-8.3,5.3-8.7,10.7c-0.5,6.8,4.7,12.4,11.5,12.4
                c3.1,0,5.2-0.7,7.4-2.5c3.7-3,5-7,4.2-11.6C106.1,89.8,103.4,87,99.4,85.4z M95.3,103.2c-3.6-0.1-6.8-3.4-6.6-6.9
                c0.1-3.6,3.4-6.7,6.9-6.6c3.6,0.1,6.8,3.3,6.7,6.9C102.1,100.2,98.8,103.3,95.3,103.2z"/>
            <linearGradient id="SVGID_00000049904416277054549220000013319451435584246926_" gradientUnits="userSpaceOnUse" x1="15.6688" y1="-8.3302" x2="15.6688" y2="115.6441">
                <stop  offset="0" style="stop-color:#FFFFFF"/>
                <stop  offset="1" style="stop-color:#000000"/>
            </linearGradient>
            <path style="fill:url(#SVGID_00000049904416277054549220000013319451435584246926_);" d="M12.1,31.9c0.3,0.1,0.7,0.5,0.7,0.9
                c0.3,1.7,0.3,3.4,0.7,5.1c1.3,6.5,4.7,11.7,10.6,14.9c0.2,0.1,0.7,0,0.9-0.2c0.8-1.2,1.5-2.5,2.3-3.8c0.3-0.5,0.2-0.7-0.3-1
                c-1.5-1.1-3.2-2-4.4-3.4c-2.9-3.3-3.9-7.4-4.2-11.7c0-0.3,0.4-0.7,0.7-0.8c2.9-1,5.2-2.8,6.7-5.4C30.2,18,24,8.7,15.5,8.8
                c-1.4,0.3-2.8,0.3-4.1,0.9C6.9,11.6,4.3,15,3.9,20C3.5,25.3,7,30.4,12.1,31.9z M15.5,13.8c3.5,0,6.8,3.2,6.8,6.8
                c0,3.5-3.2,6.8-6.7,6.8c-3.6,0-6.9-3.3-6.8-6.9C8.7,17.1,12,13.8,15.5,13.8z"/>
            <linearGradient id="SVGID_00000131352265334115359740000005321867440922531984_" gradientUnits="userSpaceOnUse" x1="18.4322" y1="-8.3302" x2="18.4322" y2="115.6441">
                <stop  offset="0" style="stop-color:#FFFFFF"/>
                <stop  offset="1" style="stop-color:#000000"/>
            </linearGradient>
            <path style="fill:url(#SVGID_00000131352265334115359740000005321867440922531984_);" d="M9,72.9c2.2,3.4,4.9,6.3,8.4,8.3
                c4.2,2.4,8.8,3.2,13.6,3.2c1.4-0.1,2.9-0.3,4.3-0.4c0.5,0,0.7-0.2,0.4-0.7c-0.8-1.3-1.5-2.7-2.3-4c-0.2-0.3-0.6-0.5-0.9-0.5
                c-1.2-0.1-2.3,0.1-3.5,0c-6-0.5-11.1-2.7-14.6-8c-0.2-0.2-0.1-0.7,0-1c0.3-0.5,0.7-0.9,1-1.3c1.2-2,1.5-4.1,0.8-6.3
                c-0.7-2.3-2.2-3.9-4.4-4.9c-2.1-0.9-4.2-0.8-6.2,0.1c-2.1,0.9-3.5,2.6-4.2,4.8c-0.7,2.1-0.4,4.2,0.7,6.1c1.2,2.1,3.1,3.4,5.5,3.9
                C8.2,72.1,8.8,72.5,9,72.9z M6.1,64.4c0-1.5,1.3-2.8,2.8-2.8c1.6,0,2.8,1.3,2.8,2.8c0,1.6-1.2,2.8-2.8,2.8
                C7.4,67.2,6.1,65.9,6.1,64.4z"/>
            <linearGradient id="SVGID_00000088096754893550882030000006495506516124946092_" gradientUnits="userSpaceOnUse" x1="92.5164" y1="-8.3302" x2="92.5164" y2="115.6441">
                <stop  offset="0" style="stop-color:#FFFFFF"/>
                <stop  offset="1" style="stop-color:#000000"/>
            </linearGradient>
            <path style="fill:url(#SVGID_00000088096754893550882030000006495506516124946092_);" d="M109.2,45.9c-1.2-2.4-4.5-4.3-7.2-4.1
                c-0.4,0-1-0.2-1.2-0.5c-3.8-4.6-8.5-7.6-14.4-8.5c-3.7-0.6-7.4-0.4-11.1,0.3c-0.5,0.1-0.5,0.3-0.3,0.7c0.8,1.4,1.6,2.8,2.5,4.1
                c0.1,0.2,0.6,0.4,0.8,0.4c1.1-0.1,2.3-0.2,3.4-0.3c1,0.1,2.1,0.1,3,0.3c4.5,0.7,8.3,2.6,11.2,6.2c0.1,0.2,0.2,0.6,0.1,0.8
                c-1.2,2.1-1.7,4.3-1,6.7c0.6,2.2,2.1,3.9,4.1,4.8c2,0.9,4.1,1,6.2,0.1c2.2-0.9,3.7-2.5,4.4-4.8C110.5,49.9,110.2,47.9,109.2,45.9z
                    M102.4,52.4c-1.6,0-2.8-1.2-2.8-2.8c0-1.5,1.3-2.8,2.8-2.8c1.6,0,2.8,1.2,2.8,2.8C105.2,51.2,104,52.4,102.4,52.4z"/>
            <linearGradient id="SVGID_00000129178013408905320670000008799241676971101867_" gradientUnits="userSpaceOnUse" x1="45.6264" y1="-8.3302" x2="45.6264" y2="115.6441">
                <stop  offset="0" style="stop-color:#FFFFFF"/>
                <stop  offset="1" style="stop-color:#000000"/>
            </linearGradient>
            <path style="fill:url(#SVGID_00000129178013408905320670000008799241676971101867_);" d="M33.5,38.1c0.3-0.4,0.4-0.6,0.5-0.8
                c1-1.7,1.9-3.3,3-4.9c0.8-1.2,1.2-2.5,1.3-4c0.4-5.1,2.4-9.5,6.5-12.8c0.8-0.7,1.5-1,2.3-0.1c0.2,0.2,0.4,0.2,0.6,0.3
                c2.1,0.9,4.1,0.9,6.2,0.1c2.2-0.9,3.7-2.6,4.4-4.9c0.6-2.1,0.4-4.1-0.7-6c-1.2-2.1-3-3.4-5.3-3.8c-2.2-0.4-4.2,0-6,1.3
                c-1.9,1.4-3.1,3.3-3.2,5.6c0,1.3-0.5,2-1.4,2.7c-3.5,2.7-6.1,6.1-7.6,10.3s-1.7,8.6-1.3,12.9C33,35.3,33.3,36.6,33.5,38.1z
                    M50.9,6c1.6,0,2.8,1.2,2.8,2.8s-1.2,2.8-2.8,2.8s-2.8-1.2-2.8-2.8C48.1,7.2,49.4,5.9,50.9,6z"/>
            <linearGradient id="SVGID_00000057146907980987619570000003400756448997726095_" gradientUnits="userSpaceOnUse" x1="66.4665" y1="-8.3302" x2="66.4665" y2="115.6441">
                <stop  offset="0" style="stop-color:#FFFFFF"/>
                <stop  offset="1" style="stop-color:#000000"/>
            </linearGradient>
            <path style="fill:url(#SVGID_00000057146907980987619570000003400756448997726095_);" d="M79.3,77.3c-0.1,0-0.1,0-0.2,0
                c-1,1.7-2,3.4-2.9,5.2c-0.9,1.8-2.2,3.4-2.4,5.5c-0.1,0.9-0.4,1.7-0.6,2.5c-1.1,3.5-3.1,6.5-6.1,8.7c-0.5,0.4-0.9,0.6-1.5,0.1
                c-0.4-0.4-1-0.7-1.5-0.9c-2.1-0.9-4.1-0.9-6.2,0c-2.1,0.9-3.6,2.5-4.3,4.7c-0.7,2.1-0.5,4.2,0.6,6.2s2.8,3.3,5,3.7
                c2.2,0.5,4.3,0.1,6.2-1.3c2-1.5,3-3.5,3.2-5.9c0-0.4,0.3-1,0.7-1.2c3.6-2.5,6.5-5.7,8.3-9.8c1.8-4.1,2.3-8.5,2.1-13
                C79.7,80.3,79.5,78.8,79.3,77.3z M60.9,108.2c-1.5,0-2.9-1.3-2.8-2.8c0-1.5,1.3-2.8,2.8-2.8c1.6,0,2.8,1.2,2.8,2.8
                C63.7,106.9,62.4,108.2,60.9,108.2z"/>
        </g>
        <g>
            <linearGradient id="SVGID_00000000944481723025398090000015899073193921051302_" gradientUnits="userSpaceOnUse" x1="55.5906" y1="-8.9907" x2="55.5906" y2="116.5143">
                <stop  offset="0" style="stop-color:#7DBEB1"/>
                <stop  offset="1" style="stop-color:#636183"/>
            </linearGradient>
            <path style="fill:url(#SVGID_00000000944481723025398090000015899073193921051302_);" d="M36.2,72.1c-1.2,0.9-1.6,2.4-0.8,3.7
                c1.3,2.3,2.6,4.5,3.8,6.8c0.9,1.7,2.2,2.3,4,2.3c4.3-0.1,8.5,0,12.8,0c0.8,0,1.7,0,2.6,0c3.8,0,7.6,0,11.5-0.1
                c1.2,0,1.9-0.7,2.4-1.6c1.3-2.2,2.5-4.4,3.8-6.6c3-5.3,6-10.5,9-15.8c0.7-1.2,1-2.5,0.3-3.7c-4.4-7.4-8.9-14.8-13.3-22.1
                c-0.8-1.3-1.6-2.5-3.3-2.5c-8.7-0.1-17.3,0-26,0c-1.2,0-2.2,0.4-2.8,1.4c-0.7,1.1-1.3,2.2-1.9,3.3c-3.8,6.6-7.7,13.1-11.5,19.8
                c-0.4,0.8-0.5,2.1-0.1,2.9c1.2,2.5,2.7,4.9,4.1,7.3c0.8,1.4,2.4,1.9,3.8,1.1c1.3-0.7,1.9-2.3,1.2-3.7c-0.9-1.8-2-3.5-2.9-5.3
                c-0.2-0.4-0.2-1,0-1.4c1.4-2.5,2.9-5,4.4-7.5c2.3-3.9,4.6-7.8,6.9-11.7c0.2-0.3,0.6-0.7,1-0.7c7.2,0,14.5,0,21.8,0
                c0.3,0,0.7,0.2,0.9,0.5c4,6.5,7.9,13,11.8,19.6c0.2,0.3,0.1,0.9-0.1,1.3c-3.6,6.4-7.2,12.7-10.8,19.1c-0.3,0.6-0.7,0.8-1.4,0.8
                c-7.1,0-14.2-0.1-21.2,0c-1.5,0-2.3-0.5-2.9-1.8c-0.9-1.8-1.9-3.5-3.1-5.2C39,71.3,37.3,71.3,36.2,72.1z"/>
            <linearGradient id="SVGID_00000081614541068609173160000015864205705355058059_" gradientUnits="userSpaceOnUse" x1="55.5906" y1="-8.9907" x2="55.5906" y2="116.5143">
                <stop  offset="0" style="stop-color:#7DBEB1"/>
                <stop  offset="1" style="stop-color:#636183"/>
            </linearGradient>
            <path style="fill:url(#SVGID_00000081614541068609173160000015864205705355058059_);" d="M45.4,75.4c0.4,1.3,1.3,2,3.1,1.8
                c0.9-0.1,2-0.9,2.3-1.8c1.4-4.7,2.8-9.4,4.2-14.1c0.2-0.8,0.5-1.6,0.8-2.6c0.2,0.4,0.2,0.6,0.3,0.8c1.6,5.2,3.1,10.5,4.7,15.7
                c0.4,1.2,1.3,2,2.4,2c1.7,0.1,2.6-0.5,3.1-1.9c1.9-6.2,3.9-12.5,5.8-18.8c0.3-0.9,0.6-1.7,0.7-2.6c0.3-1.5-0.6-2.8-2.1-3.2
                c-1.4-0.4-2.9,0.3-3.3,1.8c-0.9,2.8-1.8,5.7-2.7,8.5c-0.4,1.1-0.7,2.3-1.1,3.6c-0.2-0.5-0.3-0.8-0.4-1c-1.6-5.5-3.3-11-4.9-16.5
                C58,46,57,45.2,55.9,45.2c-1.1,0-2.2,0.8-2.5,1.9c-1.3,4.3-2.6,8.7-3.9,13c-0.4,1.5-0.9,2.9-1.4,4.6c-0.2-0.4-0.3-0.7-0.3-0.9
                c-1.1-3.6-2.2-7.1-3.3-10.7c-0.6-1.8-2-2.8-3.6-2.3s-2.3,2-1.8,3.8c1.1,3.6,2.2,7.2,3.3,10.8C43.3,68.7,44.3,72.1,45.4,75.4z"/>
            <linearGradient id="SVGID_00000009565826125442610710000012408351966188092302_" gradientUnits="userSpaceOnUse" x1="55.5906" y1="-8.9907" x2="55.5906" y2="116.5143">
                <stop  offset="0" style="stop-color:#7DBEB1"/>
                <stop  offset="1" style="stop-color:#636183"/>
            </linearGradient>
            <path style="fill:url(#SVGID_00000009565826125442610710000012408351966188092302_);" d="M62.1,29.8c1.6,0,3.2,0,4.8-0.1
                c0.4,0,0.8-0.3,1-0.6c1.1-1.4,2-3,3.2-4.1c3.2-2.9,7.2-3.9,11.4-4.4c0.8-0.1,1.2,0.1,1.5,0.9c0.2,0.5,0.5,0.9,0.9,1.4
                c4.8,7,15.8,6.5,19.8-1c4.5-8.4-1.7-17.7-10.2-17.4C88.7,4.5,84,8.4,83,14.1c-0.1,0.6-0.2,1-0.9,1c-3.7,0.2-7.2,1-10.5,2.8
                c-4.8,2.5-8.2,6.3-9.8,11.5C61.7,29.5,62,29.8,62.1,29.8z M94.5,9.3c3.5,0,6.8,3.3,6.8,6.8s-3.2,6.8-6.8,6.8
                c-3.6,0-6.9-3.3-6.9-6.9C87.7,12.6,91,9.3,94.5,9.3z"/>
            <linearGradient id="SVGID_00000028314183261978048770000017183983467883939490_" gradientUnits="userSpaceOnUse" x1="55.5906" y1="-8.9907" x2="55.5906" y2="116.5143">
                <stop  offset="0" style="stop-color:#7DBEB1"/>
                <stop  offset="1" style="stop-color:#636183"/>
            </linearGradient>
            <path style="fill:url(#SVGID_00000028314183261978048770000017183983467883939490_);" d="M51.1,88.1c-1.7,0.1-3.3,0.1-5,0.1
                c-0.3,0-0.6,0.2-0.8,0.5c-0.8,1-1.3,2.1-2.2,2.9c-3.4,3.4-7.8,4.5-12.4,4.9c-0.2,0-0.4-0.3-0.5-0.5c-1.8-4.9-5.9-7.8-11.2-7.9
                c-0.8,0.1-1.7,0.1-2.5,0.3c-8.7,2-11.6,11.8-7.1,18.2c2.9,4.2,7.1,5.7,12,4.8c4.7-0.9,7.7-3.9,9-8.5c0.2-0.6,0.4-0.7,0.9-0.8
                c4.9-0.3,9.5-1.4,13.5-4.4c3.1-2.3,5.4-5.2,6.7-8.9C51.7,88.2,51.5,88.1,51.1,88.1z M19.2,106.6c-3.5,0-6.8-2.3-6.9-6.7
                c-0.1-3.5,2.4-6.5,6.5-6.8c3.6-0.3,6.8,2.9,7,6.7C26,103.1,22.8,106.6,19.2,106.6z"/>
            <linearGradient id="SVGID_00000177452703889803766550000009535836856820736441_" gradientUnits="userSpaceOnUse" x1="55.5906" y1="-8.9907" x2="55.5906" y2="116.5143">
                <stop  offset="0" style="stop-color:#7DBEB1"/>
                <stop  offset="1" style="stop-color:#636183"/>
            </linearGradient>
            <path style="fill:url(#SVGID_00000177452703889803766550000009535836856820736441_);" d="M99.4,85.4c-0.7-0.3-0.9-0.6-0.9-1.2
                c-0.1-3-0.6-6-1.6-8.8c-1.8-4.9-5-8.6-9.6-11.1c-0.5-0.3-0.8-0.1-1,0.3c-0.7,1.3-1.4,2.5-2.1,3.8c-0.3,0.5-0.2,0.7,0.3,0.9
                c1.9,0.9,3.5,2.1,4.7,3.7c2.6,3.4,3.5,7.3,3.8,11.4c0,0.2-0.3,0.7-0.5,0.7c-5.1,1.4-8.3,5.3-8.7,10.7c-0.5,6.8,4.7,12.4,11.5,12.4
                c3.1,0,5.2-0.7,7.4-2.5c3.7-3,5-7,4.2-11.6C106.1,89.8,103.4,87,99.4,85.4z M95.3,103.2c-3.6-0.1-6.8-3.4-6.6-6.9
                c0.1-3.6,3.4-6.7,6.9-6.6c3.6,0.1,6.8,3.3,6.7,6.9C102.1,100.2,98.8,103.3,95.3,103.2z"/>
            <linearGradient id="SVGID_00000098201328791742138620000017021043558872030396_" gradientUnits="userSpaceOnUse" x1="55.5906" y1="-8.9907" x2="55.5906" y2="116.5143">
                <stop  offset="0" style="stop-color:#7DBEB1"/>
                <stop  offset="1" style="stop-color:#636183"/>
            </linearGradient>
            <path style="fill:url(#SVGID_00000098201328791742138620000017021043558872030396_);" d="M12.1,31.9c0.3,0.1,0.7,0.5,0.7,0.9
                c0.3,1.7,0.3,3.4,0.7,5.1c1.3,6.5,4.7,11.7,10.6,14.9c0.2,0.1,0.7,0,0.9-0.2c0.8-1.2,1.5-2.5,2.3-3.8c0.3-0.5,0.2-0.7-0.3-1
                c-1.5-1.1-3.2-2-4.4-3.4c-2.9-3.3-3.9-7.4-4.2-11.7c0-0.3,0.4-0.7,0.7-0.8c2.9-1,5.2-2.8,6.7-5.4C30.2,18,24,8.7,15.5,8.8
                c-1.4,0.3-2.8,0.3-4.1,0.9C6.9,11.6,4.3,15,3.9,20C3.5,25.3,7,30.4,12.1,31.9z M15.5,13.8c3.5,0,6.8,3.2,6.8,6.8
                c0,3.5-3.2,6.8-6.7,6.8c-3.6,0-6.9-3.3-6.8-6.9C8.7,17.1,12,13.8,15.5,13.8z"/>
            <linearGradient id="SVGID_00000016071377191845888830000007954693452255471019_" gradientUnits="userSpaceOnUse" x1="55.5906" y1="-8.9907" x2="55.5906" y2="116.5143">
                <stop  offset="0" style="stop-color:#7DBEB1"/>
                <stop  offset="1" style="stop-color:#636183"/>
            </linearGradient>
            <path style="fill:url(#SVGID_00000016071377191845888830000007954693452255471019_);" d="M9,72.9c2.2,3.4,4.9,6.3,8.4,8.3
                c4.2,2.4,8.8,3.2,13.6,3.2c1.4-0.1,2.9-0.3,4.3-0.4c0.5,0,0.7-0.2,0.4-0.7c-0.8-1.3-1.5-2.7-2.3-4c-0.2-0.3-0.6-0.5-0.9-0.5
                c-1.2-0.1-2.3,0.1-3.5,0c-6-0.5-11.1-2.7-14.6-8c-0.2-0.2-0.1-0.7,0-1c0.3-0.5,0.7-0.9,1-1.3c1.2-2,1.5-4.1,0.8-6.3
                c-0.7-2.3-2.2-3.9-4.4-4.9c-2.1-0.9-4.2-0.8-6.2,0.1c-2.1,0.9-3.5,2.6-4.2,4.8c-0.7,2.1-0.4,4.2,0.7,6.1c1.2,2.1,3.1,3.4,5.5,3.9
                C8.2,72.1,8.8,72.5,9,72.9z M6.1,64.4c0-1.5,1.3-2.8,2.8-2.8c1.6,0,2.8,1.3,2.8,2.8c0,1.6-1.2,2.8-2.8,2.8
                C7.4,67.2,6.1,65.9,6.1,64.4z"/>
            <linearGradient id="SVGID_00000078025802606521012610000015724563624311846827_" gradientUnits="userSpaceOnUse" x1="55.5906" y1="-8.9907" x2="55.5906" y2="116.5143">
                <stop  offset="0" style="stop-color:#7DBEB1"/>
                <stop  offset="1" style="stop-color:#636183"/>
            </linearGradient>
            <path style="fill:url(#SVGID_00000078025802606521012610000015724563624311846827_);" d="M109.2,45.9c-1.2-2.4-4.5-4.3-7.2-4.1
                c-0.4,0-1-0.2-1.2-0.5c-3.8-4.6-8.5-7.6-14.4-8.5c-3.7-0.6-7.4-0.4-11.1,0.3c-0.5,0.1-0.5,0.3-0.3,0.7c0.8,1.4,1.6,2.8,2.5,4.1
                c0.1,0.2,0.6,0.4,0.8,0.4c1.1-0.1,2.3-0.2,3.4-0.3c1,0.1,2.1,0.1,3,0.3c4.5,0.7,8.3,2.6,11.2,6.2c0.1,0.2,0.2,0.6,0.1,0.8
                c-1.2,2.1-1.7,4.3-1,6.7c0.6,2.2,2.1,3.9,4.1,4.8c2,0.9,4.1,1,6.2,0.1c2.2-0.9,3.7-2.5,4.4-4.8C110.5,49.9,110.2,47.9,109.2,45.9z
                    M102.4,52.4c-1.6,0-2.8-1.2-2.8-2.8c0-1.5,1.3-2.8,2.8-2.8c1.6,0,2.8,1.2,2.8,2.8C105.2,51.2,104,52.4,102.4,52.4z"/>
            <linearGradient id="SVGID_00000087372378480569584590000010944054409733890990_" gradientUnits="userSpaceOnUse" x1="55.5906" y1="-8.9907" x2="55.5906" y2="116.5143">
                <stop  offset="0" style="stop-color:#7DBEB1"/>
                <stop  offset="1" style="stop-color:#636183"/>
            </linearGradient>
            <path style="fill:url(#SVGID_00000087372378480569584590000010944054409733890990_);" d="M33.5,38.1c0.3-0.4,0.4-0.6,0.5-0.8
                c1-1.7,1.9-3.3,3-4.9c0.8-1.2,1.2-2.5,1.3-4c0.4-5.1,2.4-9.5,6.5-12.8c0.8-0.7,1.5-1,2.3-0.1c0.2,0.2,0.4,0.2,0.6,0.3
                c2.1,0.9,4.1,0.9,6.2,0.1c2.2-0.9,3.7-2.6,4.4-4.9c0.6-2.1,0.4-4.1-0.7-6c-1.2-2.1-3-3.4-5.3-3.8c-2.2-0.4-4.2,0-6,1.3
                c-1.9,1.4-3.1,3.3-3.2,5.6c0,1.3-0.5,2-1.4,2.7c-3.5,2.7-6.1,6.1-7.6,10.3s-1.7,8.6-1.3,12.9C33,35.3,33.3,36.6,33.5,38.1z
                    M50.9,6c1.6,0,2.8,1.2,2.8,2.8s-1.2,2.8-2.8,2.8s-2.8-1.2-2.8-2.8C48.1,7.2,49.4,5.9,50.9,6z"/>
            <linearGradient id="SVGID_00000035506609881536026820000010422521572239337610_" gradientUnits="userSpaceOnUse" x1="55.5906" y1="-8.9907" x2="55.5906" y2="116.5143">
                <stop  offset="0" style="stop-color:#7DBEB1"/>
                <stop  offset="1" style="stop-color:#636183"/>
            </linearGradient>
            <path style="fill:url(#SVGID_00000035506609881536026820000010422521572239337610_);" d="M79.3,77.3c-0.1,0-0.1,0-0.2,0
                c-1,1.7-2,3.4-2.9,5.2c-0.9,1.8-2.2,3.4-2.4,5.5c-0.1,0.9-0.4,1.7-0.6,2.5c-1.1,3.5-3.1,6.5-6.1,8.7c-0.5,0.4-0.9,0.6-1.5,0.1
                c-0.4-0.4-1-0.7-1.5-0.9c-2.1-0.9-4.1-0.9-6.2,0c-2.1,0.9-3.6,2.5-4.3,4.7c-0.7,2.1-0.5,4.2,0.6,6.2s2.8,3.3,5,3.7
                c2.2,0.5,4.3,0.1,6.2-1.3c2-1.5,3-3.5,3.2-5.9c0-0.4,0.3-1,0.7-1.2c3.6-2.5,6.5-5.7,8.3-9.8c1.8-4.1,2.3-8.5,2.1-13
                C79.7,80.3,79.5,78.8,79.3,77.3z M60.9,108.2c-1.5,0-2.9-1.3-2.8-2.8c0-1.5,1.3-2.8,2.8-2.8c1.6,0,2.8,1.2,2.8,2.8
                C63.7,106.9,62.4,108.2,60.9,108.2z"/>
        </g>
        <g>
            <radialGradient id="SVGID_00000053507860644401239740000013666557958016429751_" cx="55.5906" cy="57.1289" r="41.8424" fx="56.149" fy="58.2571" gradientUnits="userSpaceOnUse">
                <stop  offset="0" style="stop-color:#6CABBE"/>
                <stop  offset="1" style="stop-color:#6CADC1;stop-opacity:0"/>
            </radialGradient>
            <path style="fill:url(#SVGID_00000053507860644401239740000013666557958016429751_);" d="M36.2,72.1c-1.2,0.9-1.6,2.4-0.8,3.7
                c1.3,2.3,2.6,4.5,3.8,6.8c0.9,1.7,2.2,2.3,4,2.3c4.3-0.1,8.5,0,12.8,0c0.8,0,1.7,0,2.6,0c3.8,0,7.6,0,11.5-0.1
                c1.2,0,1.9-0.7,2.4-1.6c1.3-2.2,2.5-4.4,3.8-6.6c3-5.3,6-10.5,9-15.8c0.7-1.2,1-2.5,0.3-3.7c-4.4-7.4-8.9-14.8-13.3-22.1
                c-0.8-1.3-1.6-2.5-3.3-2.5c-8.7-0.1-17.3,0-26,0c-1.2,0-2.2,0.4-2.8,1.4c-0.7,1.1-1.3,2.2-1.9,3.3c-3.8,6.6-7.7,13.1-11.5,19.8
                c-0.4,0.8-0.5,2.1-0.1,2.9c1.2,2.5,2.7,4.9,4.1,7.3c0.8,1.4,2.4,1.9,3.8,1.1c1.3-0.7,1.9-2.3,1.2-3.7c-0.9-1.8-2-3.5-2.9-5.3
                c-0.2-0.4-0.2-1,0-1.4c1.4-2.5,2.9-5,4.4-7.5c2.3-3.9,4.6-7.8,6.9-11.7c0.2-0.3,0.6-0.7,1-0.7c7.2,0,14.5,0,21.8,0
                c0.3,0,0.7,0.2,0.9,0.5c4,6.5,7.9,13,11.8,19.6c0.2,0.3,0.1,0.9-0.1,1.3c-3.6,6.4-7.2,12.7-10.8,19.1c-0.3,0.6-0.7,0.8-1.4,0.8
                c-7.1,0-14.2-0.1-21.2,0c-1.5,0-2.3-0.5-2.9-1.8c-0.9-1.8-1.9-3.5-3.1-5.2C39,71.3,37.3,71.3,36.2,72.1z"/>
            <radialGradient id="SVGID_00000043438429119311711940000004251891340924192142_" cx="55.5906" cy="57.1289" r="41.8424" fx="56.149" fy="58.2571" gradientUnits="userSpaceOnUse">
                <stop  offset="0" style="stop-color:#6CABBE"/>
                <stop  offset="1" style="stop-color:#6CADC1;stop-opacity:0"/>
            </radialGradient>
            <path style="fill:url(#SVGID_00000043438429119311711940000004251891340924192142_);" d="M45.4,75.4c0.4,1.3,1.3,2,3.1,1.8
                c0.9-0.1,2-0.9,2.3-1.8c1.4-4.7,2.8-9.4,4.2-14.1c0.2-0.8,0.5-1.6,0.8-2.6c0.2,0.4,0.2,0.6,0.3,0.8c1.6,5.2,3.1,10.5,4.7,15.7
                c0.4,1.2,1.3,2,2.4,2c1.7,0.1,2.6-0.5,3.1-1.9c1.9-6.2,3.9-12.5,5.8-18.8c0.3-0.9,0.6-1.7,0.7-2.6c0.3-1.5-0.6-2.8-2.1-3.2
                c-1.4-0.4-2.9,0.3-3.3,1.8c-0.9,2.8-1.8,5.7-2.7,8.5c-0.4,1.1-0.7,2.3-1.1,3.6c-0.2-0.5-0.3-0.8-0.4-1c-1.6-5.5-3.3-11-4.9-16.5
                C58,46,57,45.2,55.9,45.2c-1.1,0-2.2,0.8-2.5,1.9c-1.3,4.3-2.6,8.7-3.9,13c-0.4,1.5-0.9,2.9-1.4,4.6c-0.2-0.4-0.3-0.7-0.3-0.9
                c-1.1-3.6-2.2-7.1-3.3-10.7c-0.6-1.8-2-2.8-3.6-2.3s-2.3,2-1.8,3.8c1.1,3.6,2.2,7.2,3.3,10.8C43.3,68.7,44.3,72.1,45.4,75.4z"/>
            <radialGradient id="SVGID_00000141430403015363043430000003972716582264055448_" cx="55.5906" cy="57.1289" r="41.8424" fx="56.149" fy="58.2571" gradientUnits="userSpaceOnUse">
                <stop  offset="0" style="stop-color:#6CABBE"/>
                <stop  offset="1" style="stop-color:#6CADC1;stop-opacity:0"/>
            </radialGradient>
            <path style="fill:url(#SVGID_00000141430403015363043430000003972716582264055448_);" d="M62.1,29.8c1.6,0,3.2,0,4.8-0.1
                c0.4,0,0.8-0.3,1-0.6c1.1-1.4,2-3,3.2-4.1c3.2-2.9,7.2-3.9,11.4-4.4c0.8-0.1,1.2,0.1,1.5,0.9c0.2,0.5,0.5,0.9,0.9,1.4
                c4.8,7,15.8,6.5,19.8-1c4.5-8.4-1.7-17.7-10.2-17.4C88.7,4.5,84,8.4,83,14.1c-0.1,0.6-0.2,1-0.9,1c-3.7,0.2-7.2,1-10.5,2.8
                c-4.8,2.5-8.2,6.3-9.8,11.5C61.7,29.5,62,29.8,62.1,29.8z M94.5,9.3c3.5,0,6.8,3.3,6.8,6.8s-3.2,6.8-6.8,6.8
                c-3.6,0-6.9-3.3-6.9-6.9C87.7,12.6,91,9.3,94.5,9.3z"/>
            <radialGradient id="SVGID_00000020394844340627148850000014660854112326256000_" cx="55.5906" cy="57.1289" r="41.8424" fx="56.149" fy="58.2571" gradientUnits="userSpaceOnUse">
                <stop  offset="0" style="stop-color:#6CABBE"/>
                <stop  offset="1" style="stop-color:#6CADC1;stop-opacity:0"/>
            </radialGradient>
            <path style="fill:url(#SVGID_00000020394844340627148850000014660854112326256000_);" d="M51.1,88.1c-1.7,0.1-3.3,0.1-5,0.1
                c-0.3,0-0.6,0.2-0.8,0.5c-0.8,1-1.3,2.1-2.2,2.9c-3.4,3.4-7.8,4.5-12.4,4.9c-0.2,0-0.4-0.3-0.5-0.5c-1.8-4.9-5.9-7.8-11.2-7.9
                c-0.8,0.1-1.7,0.1-2.5,0.3c-8.7,2-11.6,11.8-7.1,18.2c2.9,4.2,7.1,5.7,12,4.8c4.7-0.9,7.7-3.9,9-8.5c0.2-0.6,0.4-0.7,0.9-0.8
                c4.9-0.3,9.5-1.4,13.5-4.4c3.1-2.3,5.4-5.2,6.7-8.9C51.7,88.2,51.5,88.1,51.1,88.1z M19.2,106.6c-3.5,0-6.8-2.3-6.9-6.7
                c-0.1-3.5,2.4-6.5,6.5-6.8c3.6-0.3,6.8,2.9,7,6.7C26,103.1,22.8,106.6,19.2,106.6z"/>
            <radialGradient id="SVGID_00000094601276633175171900000007040384918827904933_" cx="55.5906" cy="57.1289" r="41.8424" fx="56.149" fy="58.2571" gradientUnits="userSpaceOnUse">
                <stop  offset="0" style="stop-color:#6CABBE"/>
                <stop  offset="1" style="stop-color:#6CADC1;stop-opacity:0"/>
            </radialGradient>
            <path style="fill:url(#SVGID_00000094601276633175171900000007040384918827904933_);" d="M99.4,85.4c-0.7-0.3-0.9-0.6-0.9-1.2
                c-0.1-3-0.6-6-1.6-8.8c-1.8-4.9-5-8.6-9.6-11.1c-0.5-0.3-0.8-0.1-1,0.3c-0.7,1.3-1.4,2.5-2.1,3.8c-0.3,0.5-0.2,0.7,0.3,0.9
                c1.9,0.9,3.5,2.1,4.7,3.7c2.6,3.4,3.5,7.3,3.8,11.4c0,0.2-0.3,0.7-0.5,0.7c-5.1,1.4-8.3,5.3-8.7,10.7c-0.5,6.8,4.7,12.4,11.5,12.4
                c3.1,0,5.2-0.7,7.4-2.5c3.7-3,5-7,4.2-11.6C106.1,89.8,103.4,87,99.4,85.4z M95.3,103.2c-3.6-0.1-6.8-3.4-6.6-6.9
                c0.1-3.6,3.4-6.7,6.9-6.6c3.6,0.1,6.8,3.3,6.7,6.9C102.1,100.2,98.8,103.3,95.3,103.2z"/>
            <radialGradient id="SVGID_00000078011760806164683170000009471884288350004149_" cx="55.5906" cy="57.1289" r="41.8424" fx="56.149" fy="58.2571" gradientUnits="userSpaceOnUse">
                <stop  offset="0" style="stop-color:#6CABBE"/>
                <stop  offset="1" style="stop-color:#6CADC1;stop-opacity:0"/>
            </radialGradient>
            <path style="fill:url(#SVGID_00000078011760806164683170000009471884288350004149_);" d="M12.1,31.9c0.3,0.1,0.7,0.5,0.7,0.9
                c0.3,1.7,0.3,3.4,0.7,5.1c1.3,6.5,4.7,11.7,10.6,14.9c0.2,0.1,0.7,0,0.9-0.2c0.8-1.2,1.5-2.5,2.3-3.8c0.3-0.5,0.2-0.7-0.3-1
                c-1.5-1.1-3.2-2-4.4-3.4c-2.9-3.3-3.9-7.4-4.2-11.7c0-0.3,0.4-0.7,0.7-0.8c2.9-1,5.2-2.8,6.7-5.4C30.2,18,24,8.7,15.5,8.8
                c-1.4,0.3-2.8,0.3-4.1,0.9C6.9,11.6,4.3,15,3.9,20C3.5,25.3,7,30.4,12.1,31.9z M15.5,13.8c3.5,0,6.8,3.2,6.8,6.8
                c0,3.5-3.2,6.8-6.7,6.8c-3.6,0-6.9-3.3-6.8-6.9C8.7,17.1,12,13.8,15.5,13.8z"/>
            <radialGradient id="SVGID_00000067958799452769434720000001250407165466977212_" cx="55.5906" cy="57.1289" r="41.8424" fx="56.149" fy="58.2571" gradientUnits="userSpaceOnUse">
                <stop  offset="0" style="stop-color:#6CABBE"/>
                <stop  offset="1" style="stop-color:#6CADC1;stop-opacity:0"/>
            </radialGradient>
            <path style="fill:url(#SVGID_00000067958799452769434720000001250407165466977212_);" d="M9,72.9c2.2,3.4,4.9,6.3,8.4,8.3
                c4.2,2.4,8.8,3.2,13.6,3.2c1.4-0.1,2.9-0.3,4.3-0.4c0.5,0,0.7-0.2,0.4-0.7c-0.8-1.3-1.5-2.7-2.3-4c-0.2-0.3-0.6-0.5-0.9-0.5
                c-1.2-0.1-2.3,0.1-3.5,0c-6-0.5-11.1-2.7-14.6-8c-0.2-0.2-0.1-0.7,0-1c0.3-0.5,0.7-0.9,1-1.3c1.2-2,1.5-4.1,0.8-6.3
                c-0.7-2.3-2.2-3.9-4.4-4.9c-2.1-0.9-4.2-0.8-6.2,0.1c-2.1,0.9-3.5,2.6-4.2,4.8c-0.7,2.1-0.4,4.2,0.7,6.1c1.2,2.1,3.1,3.4,5.5,3.9
                C8.2,72.1,8.8,72.5,9,72.9z M6.1,64.4c0-1.5,1.3-2.8,2.8-2.8c1.6,0,2.8,1.3,2.8,2.8c0,1.6-1.2,2.8-2.8,2.8
                C7.4,67.2,6.1,65.9,6.1,64.4z"/>
            <radialGradient id="SVGID_00000155850342845187589890000013654726013555739540_" cx="55.5906" cy="57.1289" r="41.8424" fx="56.149" fy="58.2571" gradientUnits="userSpaceOnUse">
                <stop  offset="0" style="stop-color:#6CABBE"/>
                <stop  offset="1" style="stop-color:#6CADC1;stop-opacity:0"/>
            </radialGradient>
            <path style="fill:url(#SVGID_00000155850342845187589890000013654726013555739540_);" d="M109.2,45.9c-1.2-2.4-4.5-4.3-7.2-4.1
                c-0.4,0-1-0.2-1.2-0.5c-3.8-4.6-8.5-7.6-14.4-8.5c-3.7-0.6-7.4-0.4-11.1,0.3c-0.5,0.1-0.5,0.3-0.3,0.7c0.8,1.4,1.6,2.8,2.5,4.1
                c0.1,0.2,0.6,0.4,0.8,0.4c1.1-0.1,2.3-0.2,3.4-0.3c1,0.1,2.1,0.1,3,0.3c4.5,0.7,8.3,2.6,11.2,6.2c0.1,0.2,0.2,0.6,0.1,0.8
                c-1.2,2.1-1.7,4.3-1,6.7c0.6,2.2,2.1,3.9,4.1,4.8c2,0.9,4.1,1,6.2,0.1c2.2-0.9,3.7-2.5,4.4-4.8C110.5,49.9,110.2,47.9,109.2,45.9z
                    M102.4,52.4c-1.6,0-2.8-1.2-2.8-2.8c0-1.5,1.3-2.8,2.8-2.8c1.6,0,2.8,1.2,2.8,2.8C105.2,51.2,104,52.4,102.4,52.4z"/>
            <radialGradient id="SVGID_00000021827945613991110680000001654381645880603555_" cx="55.5906" cy="57.1289" r="41.8424" fx="56.149" fy="58.2571" gradientUnits="userSpaceOnUse">
                <stop  offset="0" style="stop-color:#6CABBE"/>
                <stop  offset="1" style="stop-color:#6CADC1;stop-opacity:0"/>
            </radialGradient>
            <path style="fill:url(#SVGID_00000021827945613991110680000001654381645880603555_);" d="M33.5,38.1c0.3-0.4,0.4-0.6,0.5-0.8
                c1-1.7,1.9-3.3,3-4.9c0.8-1.2,1.2-2.5,1.3-4c0.4-5.1,2.4-9.5,6.5-12.8c0.8-0.7,1.5-1,2.3-0.1c0.2,0.2,0.4,0.2,0.6,0.3
                c2.1,0.9,4.1,0.9,6.2,0.1c2.2-0.9,3.7-2.6,4.4-4.9c0.6-2.1,0.4-4.1-0.7-6c-1.2-2.1-3-3.4-5.3-3.8c-2.2-0.4-4.2,0-6,1.3
                c-1.9,1.4-3.1,3.3-3.2,5.6c0,1.3-0.5,2-1.4,2.7c-3.5,2.7-6.1,6.1-7.6,10.3s-1.7,8.6-1.3,12.9C33,35.3,33.3,36.6,33.5,38.1z
                    M50.9,6c1.6,0,2.8,1.2,2.8,2.8s-1.2,2.8-2.8,2.8s-2.8-1.2-2.8-2.8C48.1,7.2,49.4,5.9,50.9,6z"/>
            <radialGradient id="SVGID_00000077282677414993743340000006879042270958214536_" cx="55.5906" cy="57.1289" r="41.8424" fx="56.149" fy="58.2571" gradientUnits="userSpaceOnUse">
                <stop  offset="0" style="stop-color:#6CABBE"/>
                <stop  offset="1" style="stop-color:#6CADC1;stop-opacity:0"/>
            </radialGradient>
            <path style="fill:url(#SVGID_00000077282677414993743340000006879042270958214536_);" d="M79.3,77.3c-0.1,0-0.1,0-0.2,0
                c-1,1.7-2,3.4-2.9,5.2c-0.9,1.8-2.2,3.4-2.4,5.5c-0.1,0.9-0.4,1.7-0.6,2.5c-1.1,3.5-3.1,6.5-6.1,8.7c-0.5,0.4-0.9,0.6-1.5,0.1
                c-0.4-0.4-1-0.7-1.5-0.9c-2.1-0.9-4.1-0.9-6.2,0c-2.1,0.9-3.6,2.5-4.3,4.7c-0.7,2.1-0.5,4.2,0.6,6.2s2.8,3.3,5,3.7
                c2.2,0.5,4.3,0.1,6.2-1.3c2-1.5,3-3.5,3.2-5.9c0-0.4,0.3-1,0.7-1.2c3.6-2.5,6.5-5.7,8.3-9.8c1.8-4.1,2.3-8.5,2.1-13
                C79.7,80.3,79.5,78.8,79.3,77.3z M60.9,108.2c-1.5,0-2.9-1.3-2.8-2.8c0-1.5,1.3-2.8,2.8-2.8c1.6,0,2.8,1.2,2.8,2.8
                C63.7,106.9,62.4,108.2,60.9,108.2z"/>
        </g>
    </g>
    <g>
        <g>
            
            <linearGradient id="SVGID_00000114073860764747262020000012426546675661053571_" gradientUnits="userSpaceOnUse" x1="210.1071" y1="46.0618" x2="308.5291" y2="37.2545">
                <stop  offset="0" style="stop-color:#46416E"/>
                <stop  offset="1" style="stop-color:#6A698E"/>
            </linearGradient>
            <path style="fill:url(#SVGID_00000114073860764747262020000012426546675661053571_);" d="M249.9,48.7h7.2l8.4,13.4h9.3v-1.3
                l-9.2-13.5c4.6-2.3,7.2-6.8,7.2-11.9c0-7.2-5-13.9-14.3-13.9c-5.8-0.1-11.5,0-17.3,0v40.6h8.7V48.7L249.9,48.7z M249.8,29.1h8.7
                c3.7,0,6,2.7,6,6.2c0.1,3.5-2.3,6.3-6,6.3h-8.7L249.8,29.1L249.8,29.1z"/>
            <linearGradient id="SVGID_00000025416671382296891760000004342538911536861615_" gradientUnits="userSpaceOnUse" x1="210.361" y1="48.8994" x2="308.783" y2="40.092">
                <stop  offset="0" style="stop-color:#46416E"/>
                <stop  offset="1" style="stop-color:#6A698E"/>
            </linearGradient>
            <path style="fill:url(#SVGID_00000025416671382296891760000004342538911536861615_);" d="M316.3,41.7c0-10.3-7-20.1-19.9-20.1
                h-15.1v40.5h15.1C309.5,62.1,316.4,52.1,316.3,41.7z M289.9,54.3V29.4h6.3c7.4,0,11.4,5.9,11.4,12.3c0,6.5-3.9,12.5-11.4,12.5
                C296.3,54.3,289.9,54.3,289.9,54.3z"/>
            <linearGradient id="SVGID_00000100340831424862488210000001546603073855809938_" gradientUnits="userSpaceOnUse" x1="210.8364" y1="54.2122" x2="309.2585" y2="45.4049">
                <stop  offset="0" style="stop-color:#46416E"/>
                <stop  offset="1" style="stop-color:#6A698E"/>
            </linearGradient>
            <path style="fill:url(#SVGID_00000100340831424862488210000001546603073855809938_);" d="M347.6,53c-0.4-6-2.9-11.2-7.5-15
                c-1.1-1.1-2.5-2.2-3.9-3.1c0.6,0.5,1.1,0.9,1.6,1.4l0.3,0.3c4.1,4.2,5.5,9.1,5.5,14.1c-0.4,11.5-6.8,19.9-16.7,23.8
                c-10.7,4.2-20.9,5-35.2,3s-31.9-6.8-48.9-10.6c-7.4-1.7-14.8-3.5-22.3-5.3c8.2-2.7,13.5-10.1,13.5-19.8c0-13.6-10-20.9-20.6-20.9
                c-10.8,0-20.8,7.2-20.8,20.9c0,6.4,2.1,11.4,5.5,14.9c-6.2-1.2-12.5-2.2-18.8-3l10.9-30.9v-1.3h-9.1L177,33.8l-3.4,13.5h-0.2
                l-8.8-25.2h-3.5l-8.5,25.2h-0.2l-3.6-13.5l-4.1-12.4h-9.1v1.4l10.8,30.5c-0.1,0-0.3,0-0.4,0.1c-1.6,0.2-3.9,0.6-6.2,1.1
                c-11.3,2.5-16,9.6-16.7,16.9c-0.5,4.7,2.6,10.2,5.8,12.6c1.5,1.2,2.3,1.8,3,2.2c-0.5-0.4-1-0.9-1.5-1.3c-0.1,0-0.1-0.2-0.3-0.3
                c-8.1-8.3-4.2-21.3,8.1-25.3c1.8-0.6,3.8-1.1,5.7-1.4c1.3-0.2,2.6-0.4,3.9-0.5l1.8,5.2h5.3l2.1-5.8c4-0.1,8,0,11.9,0.3l2,5.6h5.2
                l1.6-4.6c3.2,0.4,6.3,1,9.5,1.6c16.6,3.3,32.9,7.7,49.3,11.8c19.9,5,39.6,10.7,60.1,12.9c11.9,1.3,23.6,0.7,34.4-5
                C341.6,73.6,348.4,65.5,347.6,53z M213.4,28.9c6.3,0,12,4.3,12,12.9c0,8.9-5.7,13.1-12.1,13.1c-6.5,0-12-4.2-12-13.1
                C201.3,33.2,207,28.9,213.4,28.9z M158.6,52.4l4.2-11.9h0.2l4.4,12.1C164.3,52.5,161.4,52.4,158.6,52.4z"/>
        </g>
        <g>
            <path class="st39" d="M249.9,48.7h7.2l8.4,13.4h9.3v-1.3l-9.2-13.5c4.6-2.3,7.2-6.8,7.2-11.9c0-7.2-5-13.9-14.3-13.9
                c-5.8-0.1-11.5,0-17.3,0v40.6h8.7V48.7L249.9,48.7z M249.8,29.1h8.7c3.7,0,6,2.7,6,6.2c0.1,3.5-2.3,6.3-6,6.3h-8.7L249.8,29.1
                L249.8,29.1z"/>
            <path class="st39" d="M316.3,41.7c0-10.3-7-20.1-19.9-20.1h-15.1v40.5h15.1C309.5,62.1,316.4,52.1,316.3,41.7z M289.9,54.3V29.4
                h6.3c7.4,0,11.4,5.9,11.4,12.3c0,6.5-3.9,12.5-11.4,12.5C296.3,54.3,289.9,54.3,289.9,54.3z"/>
            <path class="st39" d="M347.6,53c-0.4-6-2.9-11.2-7.5-15c-1.1-1.1-2.5-2.2-3.9-3.1c0.6,0.5,1.1,0.9,1.6,1.4l0.3,0.3
                c4.1,4.2,5.5,9.1,5.5,14.1c-0.4,11.5-6.8,19.9-16.7,23.8c-10.7,4.2-20.9,5-35.2,3s-31.9-6.8-48.9-10.6c-7.4-1.7-14.8-3.5-22.3-5.3
                c8.2-2.7,13.5-10.1,13.5-19.8c0-13.6-10-20.9-20.6-20.9c-10.8,0-20.8,7.2-20.8,20.9c0,6.4,2.1,11.4,5.5,14.9
                c-6.2-1.2-12.5-2.2-18.8-3l10.9-30.9v-1.3h-9.1L177,33.8l-3.4,13.5h-0.2l-8.8-25.2h-3.5l-8.5,25.2h-0.2l-3.6-13.5l-4.1-12.4h-9.1
                v1.4l10.8,30.5c-0.1,0-0.3,0-0.4,0.1c-1.6,0.2-3.9,0.6-6.2,1.1c-11.3,2.5-16,9.6-16.7,16.9c-0.5,4.7,2.6,10.2,5.8,12.6
                c1.5,1.2,2.3,1.8,3,2.2c-0.5-0.4-1-0.9-1.5-1.3c-0.1,0-0.1-0.2-0.3-0.3c-8.1-8.3-4.2-21.3,8.1-25.3c1.8-0.6,3.8-1.1,5.7-1.4
                c1.3-0.2,2.6-0.4,3.9-0.5l1.8,5.2h5.3l2.1-5.8c4-0.1,8,0,11.9,0.3l2,5.6h5.2l1.6-4.6c3.2,0.4,6.3,1,9.5,1.6
                c16.6,3.3,32.9,7.7,49.3,11.8c19.9,5,39.6,10.7,60.1,12.9c11.9,1.3,23.6,0.7,34.4-5C341.6,73.6,348.4,65.5,347.6,53z M213.4,28.9
                c6.3,0,12,4.3,12,12.9c0,8.9-5.7,13.1-12.1,13.1c-6.5,0-12-4.2-12-13.1C201.3,33.2,207,28.9,213.4,28.9z M158.6,52.4l4.2-11.9h0.2
                l4.4,12.1C164.3,52.5,161.4,52.4,158.6,52.4z"/>
        </g>
    </g>
    <g>
        <linearGradient id="SVGID_00000112627478275774070390000014790096468513668761_" gradientUnits="userSpaceOnUse" x1="256.6" y1="11.5964" x2="256.6" y2="77.3307">
            <stop  offset="0" style="stop-color:#46416E"/>
            <stop  offset="1" style="stop-color:#737393"/>
        </linearGradient>
        <path style="fill:url(#SVGID_00000112627478275774070390000014790096468513668761_);" d="M248.5,44.9h7.2l8.4,13.4h9.3V57
            l-9.2-13.5c4.6-2.3,7.2-6.8,7.2-11.9c0-7.2-5-13.9-14.3-13.9c-5.8-0.1-11.5,0-17.3,0v40.6h8.7V44.9L248.5,44.9z M248.4,25.3h8.7
            c3.7,0,6,2.7,6,6.2c0.1,3.5-2.3,6.3-6,6.3h-8.7L248.4,25.3L248.4,25.3z"/>
        <linearGradient id="SVGID_00000183958684602088700570000016022078090514897570_" gradientUnits="userSpaceOnUse" x1="297.4005" y1="11.5964" x2="297.4005" y2="77.3307">
            <stop  offset="0" style="stop-color:#46416E"/>
            <stop  offset="1" style="stop-color:#6A698E"/>
        </linearGradient>
        <path style="fill:url(#SVGID_00000183958684602088700570000016022078090514897570_);" d="M314.9,37.9c0-10.3-7-20.1-19.9-20.1
            h-15.1v40.5H295C308.1,58.3,315,48.3,314.9,37.9z M288.5,50.5V25.6h6.3c7.4,0,11.4,5.9,11.4,12.3c0,6.5-3.9,12.5-11.4,12.5
            C294.9,50.5,288.5,50.5,288.5,50.5z"/>
        <linearGradient id="SVGID_00000150080006471633748010000011754097649089819785_" gradientUnits="userSpaceOnUse" x1="233.9552" y1="11.5964" x2="233.9552" y2="77.3307">
            <stop  offset="0" style="stop-color:#46416E"/>
            <stop  offset="1" style="stop-color:#6A698E"/>
        </linearGradient>
        <path style="fill:url(#SVGID_00000150080006471633748010000011754097649089819785_);" d="M346.2,49.2c-0.4-6-2.9-11.2-7.5-15
            c-1.1-1.1-2.5-2.2-3.9-3.1c0.6,0.5,1.1,0.9,1.6,1.4l0.3,0.3c4.1,4.2,5.5,9.1,5.5,14.1c-0.4,11.5-6.8,19.9-16.7,23.8
            c-10.7,4.2-20.9,5-35.2,3s-31.9-6.8-48.9-10.6c-7.4-1.7-14.8-3.5-22.3-5.3c8.2-2.7,13.5-10.1,13.5-19.8c0-13.6-10-20.9-20.6-20.9
            c-10.8,0-20.8,7.2-20.8,20.9c0,6.4,2.1,11.4,5.5,14.9c-6.2-1.2-12.5-2.2-18.8-3L188.8,19v-1.3h-9.1L175.6,30l-3.4,13.5H172
            l-8.8-25.2h-3.5l-8.5,25.2H151L147.4,30l-4.1-12.4h-9.1V19L145,49.5c-0.1,0-0.3,0-0.4,0.1c-1.6,0.2-3.9,0.6-6.2,1.1
            c-11.3,2.5-16,9.6-16.7,16.9c-0.5,4.7,2.6,10.2,5.8,12.6c1.5,1.2,2.3,1.8,3,2.2c-0.5-0.4-1-0.9-1.5-1.3c-0.1,0-0.1-0.2-0.3-0.3
            c-8.1-8.3-4.2-21.3,8.1-25.3c1.8-0.6,3.8-1.1,5.7-1.4c1.3-0.2,2.6-0.4,3.9-0.5l1.8,5.2h5.3l2.1-5.8c4-0.1,8,0,11.9,0.3l2,5.6h5.2
            l1.6-4.6c3.2,0.4,6.3,1,9.5,1.6c16.6,3.3,32.9,7.7,49.3,11.8c19.9,5,39.6,10.7,60.1,12.9c11.9,1.3,23.6,0.7,34.4-5
            C340.2,69.8,347,61.7,346.2,49.2z M212,25.1c6.3,0,12,4.3,12,12.9c0,8.9-5.7,13.1-12.1,13.1c-6.5,0-12-4.2-12-13.1
            C199.9,29.4,205.6,25.1,212,25.1z M157.2,48.6l4.2-11.9h0.2l4.4,12.1C162.9,48.7,160,48.6,157.2,48.6z"/>
    </g>
</svg>